<?xml version="1.0" encoding="UTF-8" standalone="no"?>
<svg
   height="800"
   width="1200"
   viewBox="-45 -37.286 390 223.716"
   version="1.1"
   id="svg2"
   sodipodi:docname="Puma.svg"
   xmlns:inkscape="http://www.inkscape.org/namespaces/inkscape"
   xmlns:sodipodi="http://sodipodi.sourceforge.net/DTD/sodipodi-0.dtd"
   xmlns="http://www.w3.org/2000/svg"
   xmlns:svg="http://www.w3.org/2000/svg">
  <defs
     id="defs2" />
  <sodipodi:namedview
     id="namedview2"
     pagecolor="#ffffff"
     bordercolor="#000000"
     borderopacity="0.25"
     inkscape:showpageshadow="2"
     inkscape:pageopacity="0.0"
     inkscape:pagecheckerboard="0"
     inkscape:deskcolor="#d1d1d1" />
  <path
     d="m 161.689,0.51 c -0.982,0.145 -1.926,3.76 -3.823,5.644 -1.386,1.357 -3.12,1.275 -4.038,2.955 -0.35,0.625 -0.237,1.698 -0.631,2.724 -0.777,2.059 -3.501,2.242 -3.501,4.483 -0.01,2.422 2.27,2.882 4.249,4.603 1.544,1.38 1.692,2.333 3.56,3.005 1.598,0.54 3.972,-1.23 6.11,-0.593 1.752,0.52 3.431,0.896 3.829,2.699 0.35,1.664 -0.025,4.237 -2.153,3.94 -0.717,-0.082 -3.83,-1.127 -7.646,-0.72 -4.612,0.524 -9.872,2.027 -10.387,7.17 -0.284,2.87 3.271,6.257 6.703,5.568 2.37,-0.464 1.25,-3.264 2.538,-4.621 1.695,-1.743 11.295,6.077 20.214,6.077 3.756,0 6.55,-0.95 9.325,-3.855 0.26,-0.224 0.575,-0.698 0.976,-0.73 0.379,0.032 1.038,0.405 1.256,0.563 7.182,5.774 12.615,17.36 39.023,17.492 3.716,0.022 7.943,1.797 11.4,4.947 3.081,2.848 4.88,7.283 6.633,11.779 2.645,6.746 7.377,13.31 14.56,20.611 0.39,0.392 6.304,4.988 6.777,5.33 0.073,0.053 0.509,1.088 0.357,1.666 -0.174,4.382 -0.811,17.114 8.682,17.692 2.32,0.116 1.714,-1.516 1.714,-2.636 -0.006,-2.22 -0.41,-4.423 0.757,-6.696 1.598,-3.122 -3.39,-4.559 -3.245,-11.312 0.104,-5.035 -4.126,-4.176 -6.27,-8.012 -1.237,-2.222 -2.336,-3.4 -2.257,-6.118 0.483,-15.295 -3.255,-25.347 -5.117,-27.816 -1.455,-1.862 -2.658,-2.601 -1.33,-3.463 7.925,-5.237 9.721,-10.102 9.721,-10.102 4.215,-9.903 8.003,-18.948 13.228,-22.932 1.05,-0.824 3.75,-2.838 5.404,-3.627 4.878,-2.299 7.441,-3.694 8.859,-5.07 2.238,-2.182 4.012,-6.737 1.862,-9.497 -2.67,-3.406 -7.29,-0.704 -9.325,0.506 -14.566,8.643 -16.713,23.891 -21.758,32.649 -4.025,6.995 -10.57,12.135 -16.422,12.555 -4.382,0.325 -9.114,-0.562 -13.821,-2.63 -11.45,-5.02 -17.714,-11.5 -19.198,-12.647 -3.075,-2.374 -26.954,-25.82 -46.306,-26.777 0,0 -2.402,-4.811 -3.005,-4.887 -1.414,-0.183 -2.863,2.87 -3.902,3.227 -0.976,0.322 -2.617,-3.306 -3.602,-3.145 M 76.505,140.434 c -1.821,-0.044 -3.368,-1.537 -3.368,-3.384 L 73.143,76.69 H 53.248 v 66.532 c 0,3.264 2.642,5.922 5.885,5.922 H 93.9 c 3.264,0 5.875,-2.658 5.875,-5.922 V 76.689 H 79.899 l -0.016,60.361 c 0,1.847 -1.547,3.34 -3.378,3.384 M 143.107,76.69 h -30.104 c -3.568,0 -6.469,2.897 -6.469,6.496 v 65.958 h 19.914 V 88.642 a 3.343,3.343 0 0 1 3.365,-3.322 c 1.857,0 3.35,1.434 3.39,3.271 v 60.553 h 19.83 V 88.591 c 0.025,-1.837 1.515,-3.27 3.371,-3.27 1.837,0 3.36,1.467 3.372,3.32 v 60.503 H 179.69 V 83.186 c 0,-3.599 -2.911,-6.497 -6.472,-6.497 h -30.11 M 39.98,130.938 H 19.881 v 18.206 H 0 V 76.69 h 40.106 c 3.59,0 6.393,2.917 6.393,6.526 v 41.191 a 6.514,6.514 0 0 1 -6.52,6.532 z M 26.629,88.768 A 3.403,3.403 0 0 0 23.26,85.32 h -3.378 v 36.646 h 3.378 c 1.756,0 3.385,-1.395 3.369,-3.403 V 88.768"
     id="path1" />
  <path
     d="m 213.068,149.144 v -18.19 h -6.759 v 18.19 H 186.436 V 83.186 c 0,-3.599 2.901,-6.497 6.469,-6.497 h 33.57 c 3.574,0 6.472,2.898 6.472,6.497 v 65.958 z m 0,-27.165 V 88.616 c -0.047,-1.843 -1.531,-3.26 -3.387,-3.26 -1.838,0 -3.353,1.473 -3.372,3.314 v 33.309 h 6.759"
     id="path2" />
</svg>
